<!-- Generator: Adobe Illustrator 19.2.1, SVG Export Plug-In  -->
<svg version="1.1"
	 xmlns="http://www.w3.org/2000/svg" xmlns:xlink="http://www.w3.org/1999/xlink" xmlns:a="http://ns.adobe.com/AdobeSVGViewerExtensions/3.0/"
	 x="0px" y="0px" width="261.4px" height="209.8px" viewBox="0 0 261.4 209.8" style="enable-background:new 0 0 261.4 209.8;"
	 xml:space="preserve">
<style type="text/css">
	.st0{fill:#979797;}
</style>
<defs>
</defs>
<g>
	<path class="st0" d="M151,0v0.1c9.8,0,20.3,6.8,20.3,19.4l0,0.4l0.2-0.4C174.9,12.9,181,9,188.2,9c7,0,13.9,3.6,17.8,9.2
		c3.5,5.1,4.1,11.3,1.8,17.4l-0.1,0.4l0.3-0.3c3.9-3.5,8.2-5.3,12.7-5.3c4.3,0,8.6,1.7,12.2,4.7c3.5,2.9,6.1,6.9,7.3,11.2
		c1.1,3.8,1.1,7.7-0.2,11.2c-1.4,3.9-4.1,7.2-8.2,9.8l-0.1,0.1l0.1,0.1l0.1,0.1c0,0,0.1,0.1,0.1,0.1l0,0.1l0.1,0
		c3.1-1.4,6.1-2.1,8.9-2.1c10.9,0,17.9,10.3,18.5,20.2c0.3,4.8-1,9.4-3.6,12.8c-2.9,3.9-7.6,6.3-13.3,6.9l0,0.2
		c5.4,0.3,10.5,2.9,14,7.1c3.5,4.2,5.1,9.5,4.5,15c-1.1,9.9-9.9,17.6-20,17.6c-2.5,0-4.9-0.5-7.2-1.4l-0.8-0.3l0.7,0.5
		c3.7,2.6,6.3,6.1,7.5,10.2c1.1,3.8,1.1,7.9-0.2,11.9c-2.7,8.5-10,14.1-18.7,14.1c-0.2,0-0.3,0-0.5,0l-0.1,0v0l-0.3,0
		c-2.8,0-5.7,0-8.4-0.1c-2.8,0-5.6-0.1-8.4-0.1c-3.5,0-6.3,0-9,0.1c-16,0.5-26,11.7-26,29.2H146v-35.3c0-8.2-2.2-15.1-6.3-20.1
		c-4.4-5.4-11-8.3-19.1-8.5c-3.2-0.1-11.6-0.1-25.8-0.1c-13.9,0-31,0-46.1,0.1c-12,0-22.4,0.1-29.1,0.1v0h-0.1
		c-13,0-19.1-10.1-19.3-19.5c-0.1-5.1,1.5-10,4.5-13.6c3.3-4.1,8.2-6.4,14-6.6l0.4,0l-0.4-0.2c-4.6-2-8-5.2-9.9-9.3
		c-1.7-3.7-2.1-8-1.2-12.4c0.9-4.5,3.2-8.6,6.4-11.6c3.5-3.3,7.7-5,12.4-5c2,0,4.1,0.3,6.2,1l0.4,0.1l-0.3-0.3
		c-5.7-5.8-7.2-13.3-4.1-20.4c3.3-7.8,11.2-13.3,19.2-13.3c4.9,0,9.5,2.1,13.4,5.9l0.5,0.5l-0.4-0.7c-3.6-6.2-3.6-13-0.2-18.9
		c3.7-6.4,11.1-10.7,18.3-10.7c3.9,0,9.6,1.2,14.4,7.1l0.2,0.2l0-0.2c0.6-5.3,3-9.7,6.9-12.9c3.6-2.9,8.3-4.5,13.1-4.5
		c8.5,0,15.6,4.9,18.4,12.7l0.1,0.3l0.1-0.3c1.4-4.2,4-7.6,7.5-9.9c3.2-2.1,6.9-3.2,11-3.2V0 M151,0c-7.8,0-15.5,4.1-18.5,13.2
		c-3.2-8.7-10.8-12.8-18.5-12.8c-9.4,0-18.9,6.1-20.1,17.4c-4.1-5-9.4-7.1-14.5-7.1c-13.6,0-26.8,14.7-18.2,29.7
		c-4.2-4.2-8.9-6-13.4-6c-15.3,0-28.9,19.7-15.2,33.9c-2.2-0.7-4.3-1-6.2-1c-19.3,0-28,29.6-7.6,38.4c-25.2,1-24.6,40,0.8,40
		c0,0,0,0,0,0c15.4,0,50.5-0.1,75.4-0.1c12.4,0,22.3,0,25.8,0.1c17,0.5,25.3,12.7,25.3,28.6c0,11.8,0,23.6,0,35.4h24
		c0-16.2,8.7-28.6,25.9-29.2c3-0.1,6-0.1,9-0.1c5.6,0,11.3,0.1,16.9,0.1c0.1,0,0.2,0,0.4,0v0c0.2,0,0.3,0,0.5,0
		c19,0,27.2-25.3,11.4-36.4c2.4,0.9,4.8,1.4,7.2,1.4c9.8,0,18.9-7.3,20.1-17.7c1.3-11.6-7.4-21.5-18.6-22.2
		c26.3-2.9,19.3-40.2-1.6-40.2c-2.8,0-5.8,0.7-9,2.1c-0.1-0.1-0.1-0.1-0.2-0.2c18.9-12,5.5-37.1-11.2-37.1c-4.2,0-8.6,1.6-12.8,5.3
		c5.8-15.1-7.1-26.8-19.7-26.8c-6.5,0-13,3.1-16.8,10.6C171.4,7.1,161.1,0,151,0L151,0z"/>
</g>
</svg>
